<?xml version="1.0" standalone="no"?>
<!DOCTYPE svg PUBLIC "-//W3C//DTD SVG 20010904//EN"
 "http://www.w3.org/TR/2001/REC-SVG-20010904/DTD/svg10.dtd">
<svg version="1.0" xmlns="http://www.w3.org/2000/svg"
 width="576.000000pt" height="956.000000pt" viewBox="0 0 576.000000 956.000000"
 preserveAspectRatio="xMidYMid meet">

<g transform="translate(0.000000,956.000000) scale(0.100000,-0.100000)"
fill="#000000" stroke="none">
<path d="M1120 9290 c-153 -13 -215 -23 -242 -36 -15 -8 -37 -14 -48 -14 -12
0 -34 -6 -48 -13 -15 -8 -45 -22 -67 -32 -106 -49 -218 -142 -280 -236 -44
-64 -105 -189 -105 -215 0 -10 -7 -28 -15 -38 -8 -11 -15 -34 -15 -50 0 -17
-6 -51 -14 -76 -11 -38 -15 -646 -20 -3715 -5 -2502 -4 -3705 3 -3780 11 -116
31 -226 51 -285 48 -137 107 -243 179 -319 61 -63 210 -171 238 -171 6 0 24
-6 40 -14 39 -19 123 -42 225 -60 76 -14 289 -16 1819 -16 1910 0 1806 -3
2004 62 76 25 197 86 215 108 3 3 20 16 38 29 45 32 134 144 170 216 45 89 58
122 80 205 49 183 46 -16 49 3895 2 2449 0 3700 -7 3740 -38 229 -64 309 -144
451 -53 95 -185 215 -291 263 -27 13 -58 28 -69 33 -27 14 -119 38 -211 56
-69 13 -309 15 -1765 17 -927 1 -1723 -1 -1770 -5z"/>
</g>
</svg>
