<svg xmlns="http://www.w3.org/2000/svg" xmlns:xlink="http://www.w3.org/1999/xlink" width="176" zoomAndPan="magnify" viewBox="0 0 132 93.749996" height="125" preserveAspectRatio="xMidYMid meet" version="1.0"><defs><clipPath id="6abfeab7e8"><path d="M 0.179688 0 L 131.078125 0 L 131.078125 93.5 L 0.179688 93.5 Z M 0.179688 0 " clip-rule="nonzero"/></clipPath><clipPath id="3e3dc0a199"><path d="M 18.878906 0 L 112.546875 0 C 122.875 0 131.246094 8.371094 131.246094 18.699219 L 131.246094 74.730469 C 131.246094 85.058594 122.875 93.429688 112.546875 93.429688 L 18.878906 93.429688 C 8.554688 93.429688 0.179688 85.058594 0.179688 74.730469 L 0.179688 18.699219 C 0.179688 8.371094 8.554688 0 18.878906 0 Z M 18.878906 0 " clip-rule="nonzero"/></clipPath><clipPath id="7b2a330a42"><path d="M 41.234375 20.941406 L 91.273438 20.941406 L 91.273438 25.890625 L 41.234375 25.890625 Z M 41.234375 20.941406 " clip-rule="nonzero"/></clipPath><clipPath id="8bc8116889"><path d="M 43.707031 20.941406 L 88.785156 20.941406 C 90.152344 20.941406 91.261719 22.050781 91.261719 23.417969 C 91.261719 24.78125 90.152344 25.890625 88.785156 25.890625 L 43.707031 25.890625 C 42.339844 25.890625 41.234375 24.78125 41.234375 23.417969 C 41.234375 22.050781 42.339844 20.941406 43.707031 20.941406 Z M 43.707031 20.941406 " clip-rule="nonzero"/></clipPath><clipPath id="5d67dd2d28"><path d="M 41.234375 30.378906 L 81.242188 30.378906 L 81.242188 35.328125 L 41.234375 35.328125 Z M 41.234375 30.378906 " clip-rule="nonzero"/></clipPath><clipPath id="334f153936"><path d="M 43.707031 30.378906 L 78.761719 30.378906 C 80.128906 30.378906 81.238281 31.484375 81.238281 32.851562 C 81.238281 34.21875 80.128906 35.328125 78.761719 35.328125 L 43.707031 35.328125 C 42.339844 35.328125 41.234375 34.21875 41.234375 32.851562 C 41.234375 31.484375 42.339844 30.378906 43.707031 30.378906 Z M 43.707031 30.378906 " clip-rule="nonzero"/></clipPath><clipPath id="0a0ff5aff2"><path d="M 41.234375 39.816406 L 89.921875 39.816406 L 89.921875 44.761719 L 41.234375 44.761719 Z M 41.234375 39.816406 " clip-rule="nonzero"/></clipPath><clipPath id="bb0b829539"><path d="M 43.707031 39.816406 L 87.441406 39.816406 C 88.808594 39.816406 89.914062 40.921875 89.914062 42.289062 C 89.914062 43.65625 88.808594 44.761719 87.441406 44.761719 L 43.707031 44.761719 C 42.339844 44.761719 41.234375 43.65625 41.234375 42.289062 C 41.234375 40.921875 42.339844 39.816406 43.707031 39.816406 Z M 43.707031 39.816406 " clip-rule="nonzero"/></clipPath><clipPath id="74331f5572"><path d="M 41.234375 49.25 L 84.238281 49.25 L 84.238281 54.246094 L 41.234375 54.246094 Z M 41.234375 49.25 " clip-rule="nonzero"/></clipPath><clipPath id="e39a71eea5"><path d="M 43.734375 49.25 L 81.730469 49.25 C 82.394531 49.25 83.027344 49.515625 83.496094 49.980469 C 83.964844 50.449219 84.230469 51.085938 84.230469 51.75 C 84.230469 52.410156 83.964844 53.046875 83.496094 53.515625 C 83.027344 53.984375 82.394531 54.246094 81.730469 54.246094 L 43.734375 54.246094 C 43.070312 54.246094 42.433594 53.984375 41.964844 53.515625 C 41.496094 53.046875 41.234375 52.410156 41.234375 51.75 C 41.234375 51.085938 41.496094 50.449219 41.964844 49.980469 C 42.433594 49.515625 43.070312 49.25 43.734375 49.25 Z M 43.734375 49.25 " clip-rule="nonzero"/></clipPath><clipPath id="3f0ed1935e"><path d="M 41.234375 58.734375 L 89.921875 58.734375 L 89.921875 63.839844 L 41.234375 63.839844 Z M 41.234375 58.734375 " clip-rule="nonzero"/></clipPath><clipPath id="6838bcb792"><path d="M 43.785156 58.734375 L 87.363281 58.734375 C 88.039062 58.734375 88.6875 59.003906 89.167969 59.484375 C 89.644531 59.960938 89.914062 60.609375 89.914062 61.285156 C 89.914062 61.964844 89.644531 62.613281 89.167969 63.089844 C 88.6875 63.570312 88.039062 63.839844 87.363281 63.839844 L 43.785156 63.839844 C 43.109375 63.839844 42.460938 63.570312 41.980469 63.089844 C 41.503906 62.613281 41.234375 61.964844 41.234375 61.285156 C 41.234375 60.609375 41.503906 59.960938 41.980469 59.484375 C 42.460938 59.003906 43.109375 58.734375 43.785156 58.734375 Z M 43.785156 58.734375 " clip-rule="nonzero"/></clipPath><clipPath id="cf66732883"><path d="M 41.234375 68.324219 L 88.429688 68.324219 L 88.429688 73.429688 L 41.234375 73.429688 Z M 41.234375 68.324219 " clip-rule="nonzero"/></clipPath><clipPath id="e3a184f78d"><path d="M 43.785156 68.324219 L 85.867188 68.324219 C 86.542969 68.324219 87.191406 68.59375 87.671875 69.074219 C 88.148438 69.550781 88.417969 70.199219 88.417969 70.878906 C 88.417969 71.554688 88.148438 72.203125 87.671875 72.679688 C 87.191406 73.160156 86.542969 73.429688 85.867188 73.429688 L 43.785156 73.429688 C 43.109375 73.429688 42.460938 73.160156 41.980469 72.679688 C 41.503906 72.203125 41.234375 71.554688 41.234375 70.878906 C 41.234375 70.199219 41.503906 69.550781 41.980469 69.074219 C 42.460938 68.59375 43.109375 68.324219 43.785156 68.324219 Z M 43.785156 68.324219 " clip-rule="nonzero"/></clipPath><clipPath id="b671b8a6f1"><path d="M 41.234375 11.507812 L 87.523438 11.507812 L 87.523438 16.453125 L 41.234375 16.453125 Z M 41.234375 11.507812 " clip-rule="nonzero"/></clipPath><clipPath id="4c8d844641"><path d="M 43.707031 11.507812 L 85.046875 11.507812 C 86.414062 11.507812 87.519531 12.613281 87.519531 13.980469 C 87.519531 15.347656 86.414062 16.453125 85.046875 16.453125 L 43.707031 16.453125 C 42.339844 16.453125 41.234375 15.347656 41.234375 13.980469 C 41.234375 12.613281 42.339844 11.507812 43.707031 11.507812 Z M 43.707031 11.507812 " clip-rule="nonzero"/></clipPath><clipPath id="769d8f4a5d"><path d="M 41.234375 77.917969 L 85.699219 77.917969 L 85.699219 83.019531 L 41.234375 83.019531 Z M 41.234375 77.917969 " clip-rule="nonzero"/></clipPath><clipPath id="1d3ef8922c"><path d="M 43.785156 77.917969 L 83.140625 77.917969 C 83.820312 77.917969 84.46875 78.183594 84.945312 78.664062 C 85.425781 79.140625 85.691406 79.789062 85.691406 80.46875 C 85.691406 81.144531 85.425781 81.792969 84.945312 82.269531 C 84.46875 82.75 83.820312 83.019531 83.140625 83.019531 L 43.785156 83.019531 C 43.109375 83.019531 42.460938 82.75 41.980469 82.269531 C 41.503906 81.792969 41.234375 81.144531 41.234375 80.46875 C 41.234375 79.789062 41.503906 79.140625 41.980469 78.664062 C 42.460938 78.183594 43.109375 77.917969 43.785156 77.917969 Z M 43.785156 77.917969 " clip-rule="nonzero"/></clipPath></defs><g clip-path="url(#6abfeab7e8)"><g clip-path="url(#3e3dc0a199)"><path stroke-linecap="butt" transform="matrix(0.748005, 0, 0, 0.748005, 0.181378, -0.00000099734)" fill="none" stroke-linejoin="miter" d="M 24.996519 0.00000133333 L 150.220196 0.00000133333 C 164.027753 0.00000133333 175.218976 11.191224 175.218976 24.998781 L 175.218976 99.906343 C 175.218976 113.7139 164.027753 124.905123 150.220196 124.905123 L 24.996519 124.905123 C 11.194185 124.905123 -0.00226064 113.7139 -0.00226064 99.906343 L -0.00226064 24.998781 C -0.00226064 11.191224 11.194185 0.00000133333 24.996519 0.00000133333 Z M 24.996519 0.00000133333 " stroke="#545454" stroke-width="6" stroke-opacity="1" stroke-miterlimit="4"/></g></g><g clip-path="url(#7b2a330a42)"><g clip-path="url(#8bc8116889)"><path fill="#8c52ff" d="M 41.234375 20.941406 L 91.253906 20.941406 L 91.253906 25.890625 L 41.234375 25.890625 Z M 41.234375 20.941406 " fill-opacity="1" fill-rule="nonzero"/></g></g><g clip-path="url(#5d67dd2d28)"><g clip-path="url(#334f153936)"><path fill="#545454" d="M 41.234375 30.378906 L 81.242188 30.378906 L 81.242188 35.328125 L 41.234375 35.328125 Z M 41.234375 30.378906 " fill-opacity="1" fill-rule="nonzero"/></g></g><g clip-path="url(#0a0ff5aff2)"><g clip-path="url(#bb0b829539)"><path fill="#8c52ff" d="M 41.234375 39.816406 L 89.921875 39.816406 L 89.921875 44.761719 L 41.234375 44.761719 Z M 41.234375 39.816406 " fill-opacity="1" fill-rule="nonzero"/></g></g><g clip-path="url(#74331f5572)"><g clip-path="url(#e39a71eea5)"><path fill="#545454" d="M 41.234375 49.25 L 84.238281 49.25 L 84.238281 54.246094 L 41.234375 54.246094 Z M 41.234375 49.25 " fill-opacity="1" fill-rule="nonzero"/></g></g><g clip-path="url(#3f0ed1935e)"><g clip-path="url(#6838bcb792)"><path fill="#8c52ff" d="M 41.234375 58.734375 L 89.921875 58.734375 L 89.921875 63.839844 L 41.234375 63.839844 Z M 41.234375 58.734375 " fill-opacity="1" fill-rule="nonzero"/></g></g><g clip-path="url(#cf66732883)"><g clip-path="url(#e3a184f78d)"><path fill="#545454" d="M 41.234375 68.324219 L 88.429688 68.324219 L 88.429688 73.429688 L 41.234375 73.429688 Z M 41.234375 68.324219 " fill-opacity="1" fill-rule="nonzero"/></g></g><g clip-path="url(#b671b8a6f1)"><g clip-path="url(#4c8d844641)"><path fill="#545454" d="M 41.234375 11.507812 L 87.523438 11.507812 L 87.523438 16.453125 L 41.234375 16.453125 Z M 41.234375 11.507812 " fill-opacity="1" fill-rule="nonzero"/></g></g><g clip-path="url(#769d8f4a5d)"><g clip-path="url(#1d3ef8922c)"><path fill="#8c52ff" d="M 41.234375 77.917969 L 85.699219 77.917969 L 85.699219 83.019531 L 41.234375 83.019531 Z M 41.234375 77.917969 " fill-opacity="1" fill-rule="nonzero"/></g></g></svg>