<?xml version="1.0" standalone="no"?>
<!DOCTYPE svg PUBLIC "-//W3C//DTD SVG 20010904//EN"
  "http://www.w3.org/TR/2001/REC-SVG-20010904/DTD/svg10.dtd">
<svg version="1.0" xmlns="http://www.w3.org/2000/svg"
     width="1092.000000pt" height="1111.000000pt" viewBox="0 0 1092.000000 1111.000000"
     preserveAspectRatio="xMidYMid meet">

  <g transform="translate(0.000000,1111.000000) scale(0.100000,-0.100000)"
     fill="#000000" stroke="none">
    <path fill="#8F2356" d="M5505 10729 c-16 -5 -40 -11 -53 -14 -40 -7 -114 -56 -164 -108 -61
-64 -120 -178 -174 -340 l-44 -130 185 -571 c102 -314 189 -578 194 -586 14
-25 669 -2050 687 -2125 12 -47 18 -112 18 -200 1 -109 -3 -142 -22 -205 -47
-149 -154 -282 -298 -369 l-67 -39 84 -26 c135 -41 185 -48 298 -44 96 3 113
6 173 36 87 42 170 133 222 239 21 43 61 146 88 228 346 1058 1001 3086 1014
3140 11 50 15 102 12 180 -3 96 -8 118 -33 170 -43 90 -130 171 -246 227 -104
51 -1484 504 -1621 532 -84 17 -205 20 -253 5z"/>
    <path fill="#A1264C" d="M4280 10445 c-78 -15 -1478 -465 -1588 -511 -140 -59 -243 -147 -295
-253 -28 -57 -32 -77 -35 -167 -5 -118 9 -193 66 -363 l37 -109 1345 -977
c740 -537 1375 -1002 1412 -1031 115 -92 219 -231 265 -354 37 -97 43 -246 13
-360 -12 -47 -33 -104 -47 -128 -13 -24 -23 -45 -21 -47 6 -7 175 53 238 84
232 116 320 305 265 566 -14 66 -466 1474 -484 1505 -4 8 -137 413 -295 900
-158 487 -303 917 -320 955 -79 169 -193 267 -340 294 -75 14 -121 13 -216 -4z"/>
    <path fill="#7D2060" d="M8285 9740 c-106 -23 -197 -70 -361 -187 l-95 -68 -109 -335 c-60
-184 -289 -891 -509 -1570 -221 -679 -413 -1266 -427 -1305 -61 -162 -158
-307 -256 -383 -129 -98 -250 -135 -426 -130 -61 2 -112 1 -112 -1 0 -15 114
-151 174 -208 101 -96 181 -135 290 -141 103 -5 184 14 288 71 102 55 2812
2024 2887 2098 70 68 113 128 143 200 17 43 22 73 22 149 -1 110 -26 188 -96
300 -82 132 -935 1295 -991 1352 -62 63 -137 115 -205 141 -51 20 -162 29
-217 17z"/>
    <path fill="#8F2356" d="M1854 8976 c-151 -56 -189 -100 -707 -811 -248 -341 -470 -650 -493
-688 -101 -164 -121 -333 -55 -471 43 -88 142 -193 282 -296 l108 -80 1683 0
c1073 0 1716 -4 1773 -10 344 -39 558 -210 633 -508 10 -39 21 -74 24 -77 3
-3 28 28 56 68 204 295 199 504 -17 717 -67 67 -378 297 -1433 1063 -741 537
-1377 996 -1413 1018 -151 95 -313 123 -441 75z"/>
    <path fill="#6C1D6A" d="M9630 7312 c-72 -60 -2677 -1948 -2739 -1985 -140 -85 -273 -127
-406 -127 -162 0 -289 51 -437 173 l-48 39 0 -109 c1 -302 113 -476 352 -544
l83 -24 1790 0 1790 0 83 24 c143 41 238 117 294 236 59 128 59 123 56 1073
l-3 867 -27 78 c-34 95 -62 140 -121 194 -104 96 -199 123 -447 129 l-185 5
-35 -29z"/>
    <path fill="#7D2060" d="M895 6410 c-190 -26 -319 -111 -386 -255 -60 -128 -60 -122 -57
-1073 l3 -867 27 -78 c34 -95 62 -140 121 -194 103 -95 199 -123 444 -130
l182 -5 38 29 c112 88 2688 1953 2742 1986 140 85 273 127 406 127 162 0 289
-51 438 -173 l47 -39 0 109 c-1 301 -110 471 -350 545 l-75 23 -1760 1 c-968
1 -1787 -2 -1820 -6z"/>
    <path fill="#6C1D6A" d="M4290 5724 c-30 -8 -90 -34 -132 -57 -102 -55 -2812 -2024 -2887
-2098 -70 -68 -113 -128 -143 -200 -17 -43 -22 -73 -22 -149 1 -110 26 -188
96 -300 82 -132 935 -1295 991 -1352 111 -113 216 -163 342 -163 132 1 231 43
430 184 l104 74 45 136 c25 75 255 782 511 1571 256 789 477 1467 491 1505 61
162 158 307 256 383 129 98 250 135 426 130 61 -2 112 -1 112 1 0 2 -23 34
-50 71 -74 100 -186 202 -265 241 -60 29 -79 34 -159 36 -59 2 -110 -3 -146
-13z"/>
    <path fill="#5A1A74" d="M4633 5165 c-68 -21 -127 -61 -185 -125 -67 -73 -117 -173 -173 -345
-275 -835 -1008 -3106 -1021 -3160 -11 -51 -15 -101 -12 -180 4 -95 8 -118 33
-170 43 -90 130 -171 246 -227 104 -51 1484 -504 1621 -532 89 -18 196 -21
252 -5 21 6 47 12 58 14 37 7 112 58 160 108 61 64 120 178 174 340 l44 130
-185 571 c-102 314 -189 578 -193 586 -14 25 -670 2050 -688 2125 -12 47 -18
113 -18 200 -1 109 3 142 22 205 47 149 154 282 298 368 l66 40 -64 21 c-156
51 -339 67 -435 36z"/>
    <path fill="#5A1A74" d="M5742 5047 c-204 -295 -199 -504 17 -717 67 -67 378 -297 1433 -1063
742 -538 1377 -996 1413 -1019 146 -91 306 -121 429 -78 160 55 195 94 719
815 248 341 470 650 493 688 101 164 121 333 55 471 -43 88 -142 193 -282 296
l-108 80 -1683 0 c-1073 0 -1716 4 -1773 10 -346 39 -558 210 -634 512 -10 37
-20 70 -23 73 -3 3 -28 -28 -56 -68z"/>
    <path fill="#48177D" d="M5380 4981 c-347 -112 -481 -314 -415 -626 14 -66 466 -1474 484
-1505 4 -8 137 -413 295 -900 158 -487 303 -916 320 -955 111 -237 289 -334
536 -292 94 16 1469 455 1608 513 140 59 243 147 295 253 28 57 32 77 35 167
5 118 -9 193 -66 363 l-37 109 -1345 977 c-740 538 -1375 1002 -1412 1031
-115 92 -219 231 -265 354 -37 97 -43 246 -13 360 12 47 33 104 47 128 13 24
23 45 21 47 -2 2 -41 -9 -88 -24z"/>
  </g>
</svg>
