<svg xmlns="http://www.w3.org/2000/svg" xmlns:xlink="http://www.w3.org/1999/xlink" width="176" zoomAndPan="magnify" viewBox="0 0 132 93.749996" height="125" preserveAspectRatio="xMidYMid meet" version="1.0"><defs><clipPath id="7cfd9eb96b"><path d="M 40.699219 20.683594 L 90.730469 20.683594 L 90.730469 25.304688 L 40.699219 25.304688 Z M 40.699219 20.683594 " clip-rule="nonzero"/></clipPath><clipPath id="aa143c5159"><path d="M 43.011719 20.683594 L 88.414062 20.683594 C 89.027344 20.683594 89.617188 20.925781 90.050781 21.359375 C 90.484375 21.792969 90.726562 22.378906 90.726562 22.992188 C 90.726562 23.605469 90.484375 24.195312 90.050781 24.628906 C 89.617188 25.0625 89.027344 25.304688 88.414062 25.304688 L 43.011719 25.304688 C 42.398438 25.304688 41.8125 25.0625 41.378906 24.628906 C 40.945312 24.195312 40.699219 23.605469 40.699219 22.992188 C 40.699219 22.378906 40.945312 21.792969 41.378906 21.359375 C 41.8125 20.925781 42.398438 20.683594 43.011719 20.683594 Z M 43.011719 20.683594 " clip-rule="nonzero"/></clipPath><clipPath id="46369c5ee2"><path d="M 40.699219 30.117188 L 80.710938 30.117188 L 80.710938 35.066406 L 40.699219 35.066406 Z M 40.699219 30.117188 " clip-rule="nonzero"/></clipPath><clipPath id="69c624606f"><path d="M 43.175781 30.117188 L 78.230469 30.117188 C 79.597656 30.117188 80.703125 31.226562 80.703125 32.59375 C 80.703125 33.957031 79.597656 35.066406 78.230469 35.066406 L 43.175781 35.066406 C 41.808594 35.066406 40.699219 33.957031 40.699219 32.59375 C 40.699219 31.226562 41.808594 30.117188 43.175781 30.117188 Z M 43.175781 30.117188 " clip-rule="nonzero"/></clipPath><clipPath id="d43ace8871"><path d="M 40.699219 39.554688 L 89.386719 39.554688 L 89.386719 44.5 L 40.699219 44.5 Z M 40.699219 39.554688 " clip-rule="nonzero"/></clipPath><clipPath id="b2dfb71aa0"><path d="M 43.175781 39.554688 L 86.90625 39.554688 C 88.273438 39.554688 89.378906 40.660156 89.378906 42.027344 C 89.378906 43.394531 88.273438 44.5 86.90625 44.5 L 43.175781 44.5 C 41.808594 44.5 40.699219 43.394531 40.699219 42.027344 C 40.699219 40.660156 41.808594 39.554688 43.175781 39.554688 Z M 43.175781 39.554688 " clip-rule="nonzero"/></clipPath><clipPath id="9abe17c13c"><path d="M 40.699219 48.988281 L 83.703125 48.988281 L 83.703125 53.988281 L 40.699219 53.988281 Z M 40.699219 48.988281 " clip-rule="nonzero"/></clipPath><clipPath id="48e4b1abcd"><path d="M 43.199219 48.988281 L 81.199219 48.988281 C 81.859375 48.988281 82.496094 49.253906 82.964844 49.722656 C 83.433594 50.191406 83.695312 50.824219 83.695312 51.488281 C 83.695312 52.152344 83.433594 52.785156 82.964844 53.253906 C 82.496094 53.722656 81.859375 53.988281 81.199219 53.988281 L 43.199219 53.988281 C 42.535156 53.988281 41.902344 53.722656 41.433594 53.253906 C 40.964844 52.785156 40.699219 52.152344 40.699219 51.488281 C 40.699219 50.824219 40.964844 50.191406 41.433594 49.722656 C 41.902344 49.253906 42.535156 48.988281 43.199219 48.988281 Z M 43.199219 48.988281 " clip-rule="nonzero"/></clipPath><clipPath id="83d371fb01"><path d="M 40.699219 58.476562 L 89.390625 58.476562 L 89.390625 63.578125 L 40.699219 63.578125 Z M 40.699219 58.476562 " clip-rule="nonzero"/></clipPath><clipPath id="c1aceddfcd"><path d="M 43.25 58.476562 L 86.828125 58.476562 C 87.507812 58.476562 88.15625 58.742188 88.632812 59.222656 C 89.113281 59.699219 89.378906 60.351562 89.378906 61.027344 C 89.378906 61.703125 89.113281 62.351562 88.632812 62.828125 C 88.15625 63.308594 87.507812 63.578125 86.828125 63.578125 L 43.25 63.578125 C 42.574219 63.578125 41.925781 63.308594 41.449219 62.828125 C 40.96875 62.351562 40.699219 61.703125 40.699219 61.027344 C 40.699219 60.351562 40.96875 59.699219 41.449219 59.222656 C 41.925781 58.742188 42.574219 58.476562 43.25 58.476562 Z M 43.25 58.476562 " clip-rule="nonzero"/></clipPath><clipPath id="78c37b92e5"><path d="M 40.699219 68.066406 L 87.894531 68.066406 L 87.894531 73.167969 L 40.699219 73.167969 Z M 40.699219 68.066406 " clip-rule="nonzero"/></clipPath><clipPath id="0a3259959b"><path d="M 43.25 68.066406 L 85.332031 68.066406 C 86.011719 68.066406 86.660156 68.335938 87.136719 68.8125 C 87.617188 69.289062 87.882812 69.941406 87.882812 70.617188 C 87.882812 71.292969 87.617188 71.941406 87.136719 72.421875 C 86.660156 72.898438 86.011719 73.167969 85.332031 73.167969 L 43.25 73.167969 C 42.574219 73.167969 41.925781 72.898438 41.449219 72.421875 C 40.96875 71.941406 40.699219 71.292969 40.699219 70.617188 C 40.699219 69.941406 40.96875 69.289062 41.449219 68.8125 C 41.925781 68.335938 42.574219 68.066406 43.25 68.066406 Z M 43.25 68.066406 " clip-rule="nonzero"/></clipPath><clipPath id="4c1e2e8849"><path d="M 40.699219 11.246094 L 86.992188 11.246094 L 86.992188 16.195312 L 40.699219 16.195312 Z M 40.699219 11.246094 " clip-rule="nonzero"/></clipPath><clipPath id="da32e77c51"><path d="M 43.175781 11.246094 L 84.511719 11.246094 C 85.878906 11.246094 86.988281 12.355469 86.988281 13.71875 C 86.988281 15.085938 85.878906 16.195312 84.511719 16.195312 L 43.175781 16.195312 C 41.808594 16.195312 40.699219 15.085938 40.699219 13.71875 C 40.699219 12.355469 41.808594 11.246094 43.175781 11.246094 Z M 43.175781 11.246094 " clip-rule="nonzero"/></clipPath><clipPath id="1480d2f4f5"><path d="M 40.699219 77.65625 L 85.164062 77.65625 L 85.164062 82.757812 L 40.699219 82.757812 Z M 40.699219 77.65625 " clip-rule="nonzero"/></clipPath><clipPath id="80c7e163d3"><path d="M 43.25 77.65625 L 82.609375 77.65625 C 83.285156 77.65625 83.933594 77.925781 84.410156 78.402344 C 84.890625 78.882812 85.160156 79.53125 85.160156 80.207031 C 85.160156 80.882812 84.890625 81.53125 84.410156 82.011719 C 83.933594 82.488281 83.285156 82.757812 82.609375 82.757812 L 43.25 82.757812 C 42.574219 82.757812 41.925781 82.488281 41.449219 82.011719 C 40.96875 81.53125 40.699219 80.882812 40.699219 80.207031 C 40.699219 79.53125 40.96875 78.882812 41.449219 78.402344 C 41.925781 77.925781 42.574219 77.65625 43.25 77.65625 Z M 43.25 77.65625 " clip-rule="nonzero"/></clipPath><clipPath id="d8c1901b95"><path d="M 40.699219 28.296875 L 82.097656 28.296875 L 82.097656 36.707031 L 40.699219 36.707031 Z M 40.699219 28.296875 " clip-rule="nonzero"/></clipPath><clipPath id="0950bc6e4e"><path d="M 44.90625 28.296875 L 77.882812 28.296875 C 80.207031 28.296875 82.089844 30.179688 82.089844 32.503906 C 82.089844 34.824219 80.207031 36.707031 77.882812 36.707031 L 44.90625 36.707031 C 42.582031 36.707031 40.699219 34.824219 40.699219 32.503906 C 40.699219 30.179688 42.582031 28.296875 44.90625 28.296875 Z M 44.90625 28.296875 " clip-rule="nonzero"/></clipPath><clipPath id="2911768ebe"><path d="M 0.179688 0 L 131.078125 0 L 131.078125 93.5 L 0.179688 93.5 Z M 0.179688 0 " clip-rule="nonzero"/></clipPath><clipPath id="a4f5c733c4"><path d="M 18.878906 0 L 112.546875 0 C 122.875 0 131.246094 8.371094 131.246094 18.699219 L 131.246094 74.730469 C 131.246094 85.058594 122.875 93.429688 112.546875 93.429688 L 18.878906 93.429688 C 8.554688 93.429688 0.179688 85.058594 0.179688 74.730469 L 0.179688 18.699219 C 0.179688 8.371094 8.554688 0 18.878906 0 Z M 18.878906 0 " clip-rule="nonzero"/></clipPath></defs><g clip-path="url(#7cfd9eb96b)"><g clip-path="url(#aa143c5159)"><path fill="#545454" d="M 40.699219 20.683594 L 90.730469 20.683594 L 90.730469 25.304688 L 40.699219 25.304688 Z M 40.699219 20.683594 " fill-opacity="1" fill-rule="nonzero"/></g></g><g clip-path="url(#46369c5ee2)"><g clip-path="url(#69c624606f)"><path fill="#545454" d="M 40.699219 30.117188 L 80.710938 30.117188 L 80.710938 35.066406 L 40.699219 35.066406 Z M 40.699219 30.117188 " fill-opacity="1" fill-rule="nonzero"/></g></g><g clip-path="url(#d43ace8871)"><g clip-path="url(#b2dfb71aa0)"><path fill="#38b6ff" d="M 40.699219 39.554688 L 89.386719 39.554688 L 89.386719 44.5 L 40.699219 44.5 Z M 40.699219 39.554688 " fill-opacity="1" fill-rule="nonzero"/></g></g><g clip-path="url(#9abe17c13c)"><g clip-path="url(#48e4b1abcd)"><path fill="#545454" d="M 40.699219 48.988281 L 83.703125 48.988281 L 83.703125 53.988281 L 40.699219 53.988281 Z M 40.699219 48.988281 " fill-opacity="1" fill-rule="nonzero"/></g></g><g clip-path="url(#83d371fb01)"><g clip-path="url(#c1aceddfcd)"><path fill="#545454" d="M 40.699219 58.476562 L 89.390625 58.476562 L 89.390625 63.578125 L 40.699219 63.578125 Z M 40.699219 58.476562 " fill-opacity="1" fill-rule="nonzero"/></g></g><g clip-path="url(#78c37b92e5)"><g clip-path="url(#0a3259959b)"><path fill="#545454" d="M 40.699219 68.066406 L 87.894531 68.066406 L 87.894531 73.167969 L 40.699219 73.167969 Z M 40.699219 68.066406 " fill-opacity="1" fill-rule="nonzero"/></g></g><g clip-path="url(#4c1e2e8849)"><g clip-path="url(#da32e77c51)"><path fill="#545454" d="M 40.699219 11.246094 L 86.992188 11.246094 L 86.992188 16.195312 L 40.699219 16.195312 Z M 40.699219 11.246094 " fill-opacity="1" fill-rule="nonzero"/></g></g><g clip-path="url(#1480d2f4f5)"><g clip-path="url(#80c7e163d3)"><path fill="#545454" d="M 40.699219 77.65625 L 85.164062 77.65625 L 85.164062 82.757812 L 40.699219 82.757812 Z M 40.699219 77.65625 " fill-opacity="1" fill-rule="nonzero"/></g></g><g clip-path="url(#d8c1901b95)"><g clip-path="url(#0950bc6e4e)"><path fill="#8c52ff" d="M 40.699219 28.296875 L 82.097656 28.296875 L 82.097656 36.707031 L 40.699219 36.707031 Z M 40.699219 28.296875 " fill-opacity="1" fill-rule="nonzero"/></g></g><g clip-path="url(#2911768ebe)"><g clip-path="url(#a4f5c733c4)"><path stroke-linecap="butt" transform="matrix(0.748005, 0, 0, 0.748005, 0.181378, -0.00000099734)" fill="none" stroke-linejoin="miter" d="M 24.996519 0.00000133333 L 150.220196 0.00000133333 C 164.027753 0.00000133333 175.218976 11.191224 175.218976 24.998781 L 175.218976 99.906343 C 175.218976 113.7139 164.027753 124.905123 150.220196 124.905123 L 24.996519 124.905123 C 11.194185 124.905123 -0.00226064 113.7139 -0.00226064 99.906343 L -0.00226064 24.998781 C -0.00226064 11.191224 11.194185 0.00000133333 24.996519 0.00000133333 Z M 24.996519 0.00000133333 " stroke="#545454" stroke-width="6" stroke-opacity="1" stroke-miterlimit="4"/></g></g></svg>