<svg preserveAspectRatio="xMidYMid meet" viewBox="20.48 61.44 471.04 390.144" xmlns="http://www.w3.org/2000/svg"
     version="1.0" style="max-height: 500px" width="471.04" height="390.144">

    <g stroke="none" fill="#ffffff" transform="translate(0.000000,512.000000) scale(0.100000,-0.100000)">
        <path d="M585 4455 c-24 -23 -25 -29 -25 -160 l0 -135 -135 0 c-131 0 -137 -1&#10;-160 -25 l-25 -24 0 -1551 0 -1551 25 -24 24 -25 855 0 854 0 4 -109 c3 -118&#10;12 -141 72 -185 27 -21 38 -21 486 -21 448 0 459 0 486 21 60 44 69 67 72 185&#10;l4 109 854 0 855 0 24 25 25 24 0 1551 0 1551 -25 24 c-23 24 -29 25 -160 25&#10;l-135 0 0 135 c0 131 -1 137 -25 160 l-24 25 -653 0 c-385 0 -687 -4 -735 -10&#10;-166 -21 -329 -75 -476 -160 l-87 -50 -87 50 c-147 85 -310 139 -476 160 -48&#10;6 -350 10 -735 10 l-653 0 -24 -25z m1495 -159 c99 -23 236 -78 324 -130 l71&#10;-42 3 -1427 2 -1427 -71 35 c-105 53 -260 102 -380 119 -87 13 -215 16 -708&#10;16 l-601 0 0 1440 0 1441 643 -4 c569 -3 651 -5 717 -21z m2320 -1416 l0&#10;-1440 -601 0 c-493 0 -620 -3 -706 -16 -122 -18 -279 -66 -381 -118 l-72 -36&#10;0 1425 0 1425 38 24 c122 77 289 140 425 161 59 9 253 13 690 14 l607 1 0&#10;-1440z m-3840 -215 l0 -1336 25 -24 24 -25 658 0 c714 0 765 -3 922 -56 93&#10;-31 217 -93 291 -145 31 -22 67 -39 80 -39 14 0 48 16 75 36 67 48 208 119&#10;298 149 155 52 208 55 920 55 l658 0 24 25 25 24 0 1336 0 1335 80 0 80 0 0&#10;-1440 0 -1440 -829 -2 c-820 -3 -830 -3 -857 -24 -60 -44 -69 -67 -72 -185&#10;l-4 -109 -398 0 -398 0 -4 109 c-3 118 -12 141 -72 185 -27 21 -37 21 -857 24&#10;l-829 2 0 1440 0 1440 80 0 80 0 0 -1335z"/>
        <path d="M1545 3335 c-21 -20 -25 -34 -25 -80 l0 -55 -175 0 c-173 0 -176 0&#10;-200 -25 -33 -32 -33 -78 0 -110 l24 -25 281 0 c195 0 280 -3 280 -11 0 -19&#10;-90 -186 -109 -203 -18 -16 -21 -15 -62 35 -76 90 -86 99 -119 99 -41 0 -80&#10;-39 -80 -79 0 -23 17 -52 66 -112 l67 -82 -24 -19 c-40 -31 -144 -88 -193&#10;-104 -52 -18 -76 -45 -76 -87 0 -37 40 -77 77 -77 55 0 202 75 308 156 l31 24&#10;60 -43 c96 -70 216 -137 247 -137 38 0 77 40 77 80 0 38 -20 57 -131 123 -48&#10;29 -99 62 -113 73 l-26 22 36 53 c46 69 98 171 119 237 l17 52 65 0 c55 0 67&#10;4 88 25 16 15 25 36 25 55 0 19 -9 40 -25 55 -24 25 -27 25 -200 25 l-175 0 0&#10;55 c0 67 -29 105 -80 105 -19 0 -40 -9 -55 -25z"/>
        <path d="M3567 3348 c-24 -8 -56 -66 -237 -429 -116 -230 -210 -430 -210 -444&#10;0 -57 78 -95 125 -61 11 8 94 163 185 345 91 182 167 331 170 331 3 0 38 -65&#10;78 -145 l72 -145 -90 0 c-83 0 -93 -2 -115 -25 -16 -15 -25 -36 -25 -55 0 -19&#10;9 -40 25 -55 23 -24 29 -25 154 -25 l131 0 55 -110 c56 -111 73 -130 120 -130&#10;33 0 75 42 75 75 0 14 -94 214 -210 444 -194 388 -212 420 -241 430 -18 6 -32&#10;11 -33 10 -1 0 -13 -5 -29 -11z"/>
    </g>
</svg>
