<svg xmlns="http://www.w3.org/2000/svg" version="1.0" preserveAspectRatio="xMidYMid meet"
     viewBox="59.5 188.12 906.5 587.88">

    <g transform="translate(0.000000,1024.000000) scale(0.100000,-0.100000)" fill="#ffffff" stroke="none">
        <path d="M1455 8354 c-195 -43 -338 -145 -409 -292 -18 -39 -36 -80 -39 -92 -4 -17 -13 -20 -55 -20 -113 0 -261 -112 -325 -247 l-32 -68 0 -2335 0 -2335 23 -65 c65 -187 217 -336 405 -395 l79 -25 4005 0 c3590 0 4011 1 4065 15 192 50 339 167 423 338 69 141 65 -24 65 2452 0 1391 -4 2262 -10 2299 -11 67 -57 173 -96 219 -70 83 -184 147 -263 147 -39 0 -40 0 -77 78 -47 98 -167 222 -262 269 -132 67 -75 64 -1452 60 -1369 -4 -1281 0 -1479 -66 -376 -126 -719 -452 -876 -833 -30 -70 -36 -79 -41 -59 -4 13 -27 64 -51 114 -201 413 -572 709 -1033 824 -58 15 -197 17 -1305 19 -682 1 -1249 0 -1260 -2z m2530 -238 c477 -116 862 -521 992 -1043 16 -63 17 -231 20 -2157 l3 -2090 -22 21 c-33 30 -152 105 -228 143 -89 45 -179 78 -280 103 -84 21 -103 21 -1555 27 l-1470 5 -63 34 c-74 40 -115 84 -151 161 l-26 55 0 2250 0 2250 26 55 c45 97 109 157 202 190 50 18 103 19 1252 20 l1200 0 100 -24z m4860 -8 c62 -32 139 -113 168 -176 l22 -47 0 -2250 0 -2250 -33 -67 c-36 -74 -95 -132 -170 -170 l-47 -23 -1475 -5 c-1607 -6 -1502 -3 -1680 -62 -131 -43 -274 -119 -367 -195 l-43 -34 0 2044 c0 1834 2 2053 16 2138 24 137 58 247 113 362 166 349 438 603 761 711 172 57 109 55 1450 53 l1235 -2 50 -27z m-7860 -2560 c0 -1772 2 -2192 13 -2233 47 -179 169 -316 345 -388 l52 -22 1495 -5 c1653 -6 1507 0 1687 -70 68 -26 241 -118 231 -123 -1 -1 -835 0 -1853 3 l-1850 5 -57 23 c-118 48 -213 166 -238 297 -8 44 -10 659 -8 2300 l3 2240 25 45 c28 50 101 110 133 110 l22 0 0 -2182z m8342 2162 c42 -25 87 -88 102 -142 9 -33 11 -592 9 -2298 l-3 -2255 -23 -57 c-27 -67 -103 -155 -165 -191 -102 -60 20 -57 -1999 -59 -1764 -3 -1847 -2 -1825 15 43 34 243 126 322 148 l80 23 1500 6 c1202 4 1508 8 1540 19 122 40 271 162 328 268 15 28 36 86 47 129 20 76 20 118 20 2246 0 2058 1 2168 18 2168 9 0 31 -9 49 -20z"/>
        <path d="M3015 7001 c-54 -25 -104 -76 -127 -131 -11 -25 -143 -351 -293 -725 -151 -374 -349 -864 -440 -1090 -219 -539 -215 -528 -215 -583 0 -87 60 -145 150 -146 64 0 116 28 144 78 19 31 146 342 273 664 4 10 132 12 611 10 l606 -3 138 -335 c114 -279 143 -340 172 -367 77 -71 199 -62 257 19 36 50 31 106 -23 239 -216 530 -846 2076 -881 2162 -55 132 -85 172 -151 203 -65 30 -162 32 -221 5z m210 -666 c190 -471 284 -702 338 -832 l55 -133 -494 0 c-316 0 -494 4 -494 10 0 5 104 267 231 582 127 315 236 588 242 606 7 22 13 29 18 20 4 -7 51 -121 104 -253z"/>
        <path d="M7076 7015 c-85 -30 -96 -60 -96 -265 l0 -160 -547 0 c-526 0 -549 -1 -580 -20 -92 -56 -94 -177 -4 -237 33 -22 42 -23 251 -23 l217 0 52 -151 c113 -328 277 -628 482 -884 69 -86 71 -89 51 -104 -11 -9 -55 -45 -98 -79 -210 -172 -538 -354 -829 -462 -49 -19 -100 -40 -113 -48 -33 -21 -52 -64 -52 -118 0 -41 5 -51 39 -85 36 -36 43 -39 96 -39 48 0 85 12 240 75 310 129 607 301 826 478 56 45 107 86 114 91 8 6 38 -13 91 -58 233 -196 583 -402 904 -531 126 -51 210 -66 260 -45 94 39 92 202 -2 245 -18 8 -91 37 -163 65 -177 69 -366 163 -515 257 -105 66 -166 110 -349 249 -13 10 -7 21 35 70 167 197 305 411 417 647 48 99 144 350 154 399 l6 28 189 0 c206 0 238 6 276 55 16 20 22 42 22 77 0 66 -22 105 -73 129 -40 17 -73 19 -579 19 l-538 0 0 175 0 175 -33 36 c-39 43 -96 58 -151 39z m589 -732 c-13 -56 -94 -251 -145 -353 -68 -136 -131 -237 -234 -373 -110 -147 -144 -185 -153 -172 -4 6 -46 58 -92 115 -123 153 -215 296 -292 455 -53 110 -139 327 -139 351 0 2 239 4 531 4 l531 0 -7 -27z"/>
    </g>
</svg>
