<svg xmlns="http://www.w3.org/2000/svg" xmlns:xlink="http://www.w3.org/1999/xlink" width="176" zoomAndPan="magnify" viewBox="0 0 132 93.749996" height="125" preserveAspectRatio="xMidYMid meet" version="1.0"><defs><clipPath id="a6b42d8a95"><path d="M 0.179688 0 L 131.078125 0 L 131.078125 93.5 L 0.179688 93.5 Z M 0.179688 0 " clip-rule="nonzero"/></clipPath><clipPath id="662987a215"><path d="M 18.878906 0 L 112.546875 0 C 122.875 0 131.246094 8.371094 131.246094 18.699219 L 131.246094 74.730469 C 131.246094 85.058594 122.875 93.429688 112.546875 93.429688 L 18.878906 93.429688 C 8.554688 93.429688 0.179688 85.058594 0.179688 74.730469 L 0.179688 18.699219 C 0.179688 8.371094 8.554688 0 18.878906 0 Z M 18.878906 0 " clip-rule="nonzero"/></clipPath><clipPath id="d76d738939"><path d="M 75.1875 25.375 L 112.257812 25.375 L 112.257812 30.320312 L 75.1875 30.320312 Z M 75.1875 25.375 " clip-rule="nonzero"/></clipPath><clipPath id="d41e2e706f"><path d="M 77.664062 25.375 L 109.777344 25.375 C 111.144531 25.375 112.25 26.480469 112.25 27.847656 C 112.25 29.214844 111.144531 30.320312 109.777344 30.320312 L 77.664062 30.320312 C 76.296875 30.320312 75.1875 29.214844 75.1875 27.847656 C 75.1875 26.480469 76.296875 25.375 77.664062 25.375 Z M 77.664062 25.375 " clip-rule="nonzero"/></clipPath><clipPath id="4f17fb3321"><path d="M 75.1875 34.808594 L 118.910156 34.808594 L 118.910156 39.757812 L 75.1875 39.757812 Z M 75.1875 34.808594 " clip-rule="nonzero"/></clipPath><clipPath id="9a9d1ef2cb"><path d="M 77.664062 34.808594 L 116.433594 34.808594 C 117.800781 34.808594 118.90625 35.917969 118.90625 37.285156 C 118.90625 38.648438 117.800781 39.757812 116.433594 39.757812 L 77.664062 39.757812 C 76.296875 39.757812 75.1875 38.648438 75.1875 37.285156 C 75.1875 35.917969 76.296875 34.808594 77.664062 34.808594 Z M 77.664062 34.808594 " clip-rule="nonzero"/></clipPath><clipPath id="a55c6db414"><path d="M 75.1875 44.246094 L 115.582031 44.246094 L 115.582031 49.195312 L 75.1875 49.195312 Z M 75.1875 44.246094 " clip-rule="nonzero"/></clipPath><clipPath id="15b00444d0"><path d="M 77.664062 44.246094 L 113.105469 44.246094 C 114.472656 44.246094 115.578125 45.351562 115.578125 46.71875 C 115.578125 48.085938 114.472656 49.195312 113.105469 49.195312 L 77.664062 49.195312 C 76.296875 49.195312 75.1875 48.085938 75.1875 46.71875 C 75.1875 45.351562 76.296875 44.246094 77.664062 44.246094 Z M 77.664062 44.246094 " clip-rule="nonzero"/></clipPath><clipPath id="acb67f8212"><path d="M 75.1875 53.679688 L 118.914062 53.679688 L 118.914062 58.679688 L 75.1875 58.679688 Z M 75.1875 53.679688 " clip-rule="nonzero"/></clipPath><clipPath id="34ad40966b"><path d="M 77.6875 53.679688 L 116.410156 53.679688 C 117.070312 53.679688 117.707031 53.945312 118.175781 54.414062 C 118.644531 54.882812 118.90625 55.515625 118.90625 56.179688 C 118.90625 56.84375 118.644531 57.476562 118.175781 57.945312 C 117.707031 58.414062 117.070312 58.679688 116.410156 58.679688 L 77.6875 58.679688 C 77.023438 58.679688 76.390625 58.414062 75.921875 57.945312 C 75.453125 57.476562 75.1875 56.84375 75.1875 56.179688 C 75.1875 55.515625 75.453125 54.882812 75.921875 54.414062 C 76.390625 53.945312 77.023438 53.679688 77.6875 53.679688 Z M 77.6875 53.679688 " clip-rule="nonzero"/></clipPath><clipPath id="f9e57635f3"><path d="M 75.1875 63.167969 L 112.777344 63.167969 L 112.777344 68.269531 L 75.1875 68.269531 Z M 75.1875 63.167969 " clip-rule="nonzero"/></clipPath><clipPath id="af8cd6a178"><path d="M 77.738281 63.167969 L 110.222656 63.167969 C 110.898438 63.167969 111.546875 63.4375 112.023438 63.914062 C 112.503906 64.390625 112.773438 65.042969 112.773438 65.71875 C 112.773438 66.394531 112.503906 67.042969 112.023438 67.523438 C 111.546875 68 110.898438 68.269531 110.222656 68.269531 L 77.738281 68.269531 C 77.0625 68.269531 76.414062 68 75.9375 67.523438 C 75.457031 67.042969 75.1875 66.394531 75.1875 65.71875 C 75.1875 65.042969 75.457031 64.390625 75.9375 63.914062 C 76.414062 63.4375 77.0625 63.167969 77.738281 63.167969 Z M 77.738281 63.167969 " clip-rule="nonzero"/></clipPath><clipPath id="519a65021a"><path d="M 75.1875 72.757812 L 114.132812 72.757812 L 114.132812 77.859375 L 75.1875 77.859375 Z M 75.1875 72.757812 " clip-rule="nonzero"/></clipPath><clipPath id="c17cdd4f39"><path d="M 77.738281 72.757812 L 111.5625 72.757812 C 112.242188 72.757812 112.890625 73.027344 113.367188 73.503906 C 113.847656 73.984375 114.117188 74.632812 114.117188 75.308594 C 114.117188 75.984375 113.847656 76.632812 113.367188 77.113281 C 112.890625 77.589844 112.242188 77.859375 111.5625 77.859375 L 77.738281 77.859375 C 77.0625 77.859375 76.414062 77.589844 75.9375 77.113281 C 75.457031 76.632812 75.1875 75.984375 75.1875 75.308594 C 75.1875 74.632812 75.457031 73.984375 75.9375 73.503906 C 76.414062 73.027344 77.0625 72.757812 77.738281 72.757812 Z M 77.738281 72.757812 " clip-rule="nonzero"/></clipPath><clipPath id="6d4578ab5a"><path d="M 75.1875 15.9375 L 114.132812 15.9375 L 114.132812 20.886719 L 75.1875 20.886719 Z M 75.1875 15.9375 " clip-rule="nonzero"/></clipPath><clipPath id="d27b3a65b8"><path d="M 77.664062 15.9375 L 111.640625 15.9375 C 113.007812 15.9375 114.117188 17.046875 114.117188 18.410156 C 114.117188 19.777344 113.007812 20.886719 111.640625 20.886719 L 77.664062 20.886719 C 76.296875 20.886719 75.1875 19.777344 75.1875 18.410156 C 75.1875 17.046875 76.296875 15.9375 77.664062 15.9375 Z M 77.664062 15.9375 " clip-rule="nonzero"/></clipPath><clipPath id="3730ad2752"><path d="M 12.519531 25.375 L 57.050781 25.375 L 57.050781 30.320312 L 12.519531 30.320312 Z M 12.519531 25.375 " clip-rule="nonzero"/></clipPath><clipPath id="c4dc40e8a6"><path d="M 14.992188 25.375 L 54.5625 25.375 C 55.929688 25.375 57.039062 26.480469 57.039062 27.847656 C 57.039062 29.214844 55.929688 30.320312 54.5625 30.320312 L 14.992188 30.320312 C 13.628906 30.320312 12.519531 29.214844 12.519531 27.847656 C 12.519531 26.480469 13.628906 25.375 14.992188 25.375 Z M 14.992188 25.375 " clip-rule="nonzero"/></clipPath><clipPath id="12251a5016"><path d="M 12.519531 34.808594 L 48.121094 34.808594 L 48.121094 39.757812 L 12.519531 39.757812 Z M 12.519531 34.808594 " clip-rule="nonzero"/></clipPath><clipPath id="cb8d5525eb"><path d="M 14.992188 34.808594 L 45.644531 34.808594 C 47.011719 34.808594 48.117188 35.917969 48.117188 37.285156 C 48.117188 38.648438 47.011719 39.757812 45.644531 39.757812 L 14.992188 39.757812 C 13.628906 39.757812 12.519531 38.648438 12.519531 37.285156 C 12.519531 35.917969 13.628906 34.808594 14.992188 34.808594 Z M 14.992188 34.808594 " clip-rule="nonzero"/></clipPath><clipPath id="866fa3e1a2"><path d="M 12.519531 44.246094 L 55.851562 44.246094 L 55.851562 49.195312 L 12.519531 49.195312 Z M 12.519531 44.246094 " clip-rule="nonzero"/></clipPath><clipPath id="db46536204"><path d="M 14.992188 44.246094 L 53.367188 44.246094 C 54.730469 44.246094 55.839844 45.351562 55.839844 46.71875 C 55.839844 48.085938 54.730469 49.195312 53.367188 49.195312 L 14.992188 49.195312 C 13.628906 49.195312 12.519531 48.085938 12.519531 46.71875 C 12.519531 45.351562 13.628906 44.246094 14.992188 44.246094 Z M 14.992188 44.246094 " clip-rule="nonzero"/></clipPath><clipPath id="06b6c8eaef"><path d="M 12.519531 53.679688 L 50.800781 53.679688 L 50.800781 58.679688 L 12.519531 58.679688 Z M 12.519531 53.679688 " clip-rule="nonzero"/></clipPath><clipPath id="193ce2f639"><path d="M 15.019531 53.679688 L 48.28125 53.679688 C 48.945312 53.679688 49.582031 53.945312 50.050781 54.414062 C 50.515625 54.882812 50.78125 55.515625 50.78125 56.179688 C 50.78125 56.84375 50.515625 57.476562 50.050781 57.945312 C 49.582031 58.414062 48.945312 58.679688 48.28125 58.679688 L 15.019531 58.679688 C 14.355469 58.679688 13.71875 58.414062 13.25 57.945312 C 12.78125 57.476562 12.519531 56.84375 12.519531 56.179688 C 12.519531 55.515625 12.78125 54.882812 13.25 54.414062 C 13.71875 53.945312 14.355469 53.679688 15.019531 53.679688 Z M 15.019531 53.679688 " clip-rule="nonzero"/></clipPath><clipPath id="881cf40f1b"><path d="M 12.519531 63.167969 L 55.847656 63.167969 L 55.847656 68.269531 L 12.519531 68.269531 Z M 12.519531 63.167969 " clip-rule="nonzero"/></clipPath><clipPath id="af99ecfecf"><path d="M 15.070312 63.167969 L 53.289062 63.167969 C 53.964844 63.167969 54.613281 63.4375 55.09375 63.914062 C 55.570312 64.390625 55.839844 65.042969 55.839844 65.71875 C 55.839844 66.394531 55.570312 67.042969 55.09375 67.523438 C 54.613281 68 53.964844 68.269531 53.289062 68.269531 L 15.070312 68.269531 C 14.394531 68.269531 13.746094 68 13.265625 67.523438 C 12.789062 67.042969 12.519531 66.394531 12.519531 65.71875 C 12.519531 65.042969 12.789062 64.390625 13.265625 63.914062 C 13.746094 63.4375 14.394531 63.167969 15.070312 63.167969 Z M 15.070312 63.167969 " clip-rule="nonzero"/></clipPath><clipPath id="f04095c6ea"><path d="M 12.519531 72.757812 L 54.511719 72.757812 L 54.511719 77.859375 L 12.519531 77.859375 Z M 12.519531 72.757812 " clip-rule="nonzero"/></clipPath><clipPath id="bef593b20e"><path d="M 15.070312 72.757812 L 51.957031 72.757812 C 52.632812 72.757812 53.28125 73.027344 53.761719 73.503906 C 54.238281 73.984375 54.507812 74.632812 54.507812 75.308594 C 54.507812 75.984375 54.238281 76.632812 53.761719 77.113281 C 53.28125 77.589844 52.632812 77.859375 51.957031 77.859375 L 15.070312 77.859375 C 14.394531 77.859375 13.746094 77.589844 13.265625 77.113281 C 12.789062 76.632812 12.519531 75.984375 12.519531 75.308594 C 12.519531 74.632812 12.789062 73.984375 13.265625 73.503906 C 13.746094 73.027344 14.394531 72.757812 15.070312 72.757812 Z M 15.070312 72.757812 " clip-rule="nonzero"/></clipPath><clipPath id="ea29924986"><path d="M 12.519531 15.9375 L 53.726562 15.9375 L 53.726562 20.886719 L 12.519531 20.886719 Z M 12.519531 15.9375 " clip-rule="nonzero"/></clipPath><clipPath id="cef7e44856"><path d="M 14.992188 15.9375 L 51.234375 15.9375 C 52.601562 15.9375 53.710938 17.046875 53.710938 18.410156 C 53.710938 19.777344 52.601562 20.886719 51.234375 20.886719 L 14.992188 20.886719 C 13.628906 20.886719 12.519531 19.777344 12.519531 18.410156 C 12.519531 17.046875 13.628906 15.9375 14.992188 15.9375 Z M 14.992188 15.9375 " clip-rule="nonzero"/></clipPath></defs><g clip-path="url(#a6b42d8a95)"><g clip-path="url(#662987a215)"><path stroke-linecap="butt" transform="matrix(0.748005, 0, 0, 0.748005, 0.181378, -0.00000099734)" fill="none" stroke-linejoin="miter" d="M 24.996519 0.00000133333 L 150.220196 0.00000133333 C 164.027753 0.00000133333 175.218976 11.191224 175.218976 24.998781 L 175.218976 99.906343 C 175.218976 113.7139 164.027753 124.905123 150.220196 124.905123 L 24.996519 124.905123 C 11.194185 124.905123 -0.00226064 113.7139 -0.00226064 99.906343 L -0.00226064 24.998781 C -0.00226064 11.191224 11.194185 0.00000133333 24.996519 0.00000133333 Z M 24.996519 0.00000133333 " stroke="#545454" stroke-width="6" stroke-opacity="1" stroke-miterlimit="4"/></g></g><g clip-path="url(#d76d738939)"><g clip-path="url(#d41e2e706f)"><path fill="#ff66c4" d="M 75.1875 25.375 L 112.257812 25.375 L 112.257812 30.320312 L 75.1875 30.320312 Z M 75.1875 25.375 " fill-opacity="1" fill-rule="nonzero"/></g></g><g clip-path="url(#4f17fb3321)"><g clip-path="url(#9a9d1ef2cb)"><path fill="#ffde59" d="M 75.1875 34.808594 L 118.910156 34.808594 L 118.910156 39.757812 L 75.1875 39.757812 Z M 75.1875 34.808594 " fill-opacity="1" fill-rule="nonzero"/></g></g><g clip-path="url(#a55c6db414)"><g clip-path="url(#15b00444d0)"><path fill="#7ed957" d="M 75.1875 44.246094 L 115.582031 44.246094 L 115.582031 49.195312 L 75.1875 49.195312 Z M 75.1875 44.246094 " fill-opacity="1" fill-rule="nonzero"/></g></g><g clip-path="url(#acb67f8212)"><g clip-path="url(#34ad40966b)"><path fill="#8c52ff" d="M 75.1875 53.679688 L 118.914062 53.679688 L 118.914062 58.679688 L 75.1875 58.679688 Z M 75.1875 53.679688 " fill-opacity="1" fill-rule="nonzero"/></g></g><g clip-path="url(#f9e57635f3)"><g clip-path="url(#af8cd6a178)"><path fill="#ff5757" d="M 75.1875 63.167969 L 112.777344 63.167969 L 112.777344 68.269531 L 75.1875 68.269531 Z M 75.1875 63.167969 " fill-opacity="1" fill-rule="nonzero"/></g></g><g clip-path="url(#519a65021a)"><g clip-path="url(#c17cdd4f39)"><path fill="#0097b2" d="M 75.1875 72.757812 L 114.113281 72.757812 L 114.113281 77.859375 L 75.1875 77.859375 Z M 75.1875 72.757812 " fill-opacity="1" fill-rule="nonzero"/></g></g><g clip-path="url(#6d4578ab5a)"><g clip-path="url(#d27b3a65b8)"><path fill="#5271ff" d="M 75.1875 15.9375 L 114.113281 15.9375 L 114.113281 20.886719 L 75.1875 20.886719 Z M 75.1875 15.9375 " fill-opacity="1" fill-rule="nonzero"/></g></g><g clip-path="url(#3730ad2752)"><g clip-path="url(#c4dc40e8a6)"><path fill="#ff66c4" d="M 12.519531 25.375 L 57.03125 25.375 L 57.03125 30.320312 L 12.519531 30.320312 Z M 12.519531 25.375 " fill-opacity="1" fill-rule="nonzero"/></g></g><g clip-path="url(#12251a5016)"><g clip-path="url(#cb8d5525eb)"><path fill="#ffde59" d="M 12.519531 34.808594 L 48.121094 34.808594 L 48.121094 39.757812 L 12.519531 39.757812 Z M 12.519531 34.808594 " fill-opacity="1" fill-rule="nonzero"/></g></g><g clip-path="url(#866fa3e1a2)"><g clip-path="url(#db46536204)"><path fill="#7ed957" d="M 12.519531 44.246094 L 55.832031 44.246094 L 55.832031 49.195312 L 12.519531 49.195312 Z M 12.519531 44.246094 " fill-opacity="1" fill-rule="nonzero"/></g></g><g clip-path="url(#06b6c8eaef)"><g clip-path="url(#193ce2f639)"><path fill="#8c52ff" d="M 12.519531 53.679688 L 50.78125 53.679688 L 50.78125 58.679688 L 12.519531 58.679688 Z M 12.519531 53.679688 " fill-opacity="1" fill-rule="nonzero"/></g></g><g clip-path="url(#881cf40f1b)"><g clip-path="url(#af99ecfecf)"><path fill="#ff5757" d="M 12.519531 63.167969 L 55.847656 63.167969 L 55.847656 68.269531 L 12.519531 68.269531 Z M 12.519531 63.167969 " fill-opacity="1" fill-rule="nonzero"/></g></g><g clip-path="url(#f04095c6ea)"><g clip-path="url(#bef593b20e)"><path fill="#0097b2" d="M 12.519531 72.757812 L 54.511719 72.757812 L 54.511719 77.859375 L 12.519531 77.859375 Z M 12.519531 72.757812 " fill-opacity="1" fill-rule="nonzero"/></g></g><g clip-path="url(#ea29924986)"><g clip-path="url(#cef7e44856)"><path fill="#5271ff" d="M 12.519531 15.9375 L 53.707031 15.9375 L 53.707031 20.886719 L 12.519531 20.886719 Z M 12.519531 15.9375 " fill-opacity="1" fill-rule="nonzero"/></g></g></svg>